<?xml version="1.0" standalone="no"?>
<!DOCTYPE svg PUBLIC "-//W3C//DTD SVG 20010904//EN"
 "http://www.w3.org/TR/2001/REC-SVG-20010904/DTD/svg10.dtd">
<svg version="1.0" xmlns="http://www.w3.org/2000/svg"
 width="300.000000pt" height="300.000000pt" viewBox="0 0 300.000000 300.000000"
 preserveAspectRatio="xMidYMid meet">
<metadata>
Created by potrace 1.10, written by Peter Selinger 2001-2011
</metadata>
<g transform="translate(0.000000,300.000000) scale(0.100000,-0.100000)"
fill="#000000" stroke="none">
<path d="M167 2986 c-57 -21 -100 -58 -132 -117 l-30 -54 0 -1165 0 -1165 22
-41 c28 -53 91 -107 142 -122 53 -16 1868 -17 1926 -1 39 11 116 77 127 109 4
10 68 -46 209 -187 112 -110 218 -208 234 -216 53 -26 99 -30 159 -13 107 31
166 112 166 227 0 42 -6 75 -17 96 -10 18 -127 143 -260 278 -134 135 -243
247 -243 249 0 2 18 26 41 52 54 65 124 210 150 309 29 111 29 280 0 390 -53
203 -183 384 -363 502 l-38 26 0 163 c0 89 -4 173 -9 186 -8 21 -459 478 -492
499 -8 5 -352 9 -784 8 -617 0 -777 -3 -808 -13z m1463 -347 c0 -182 5 -210
39 -236 11 -9 74 -12 214 -13 l197 0 0 -81 0 -81 -27 6 c-224 45 -404 26 -576
-61 -235 -118 -399 -331 -454 -587 -19 -89 -13 -294 11 -381 70 -254 274 -478
521 -570 143 -54 312 -69 450 -40 38 8 71 15 72 15 12 0 0 -87 -14 -102 -15
-17 -57 -18 -928 -18 -903 0 -911 0 -933 20 l-22 21 0 1124 c0 1112 0 1125 20
1145 20 20 33 20 725 20 l705 0 0 -181z m245 -9 l59 -60 -62 0 -62 0 0 60 c0
33 1 60 3 60 1 0 29 -27 62 -60z m171 -589 c254 -86 438 -325 452 -587 10
-190 -54 -351 -197 -495 -134 -134 -265 -189 -454 -189 -190 0 -324 55 -458
189 -68 68 -94 103 -127 171 -125 253 -83 533 111 737 181 191 432 256 673
174z m774 -1804 c0 -22 -35 -57 -57 -57 -16 0 -513 486 -513 501 0 4 19 18 43
33 l42 25 243 -242 c133 -134 242 -251 242 -260z"/>
<path d="M414 2384 c-60 -29 -72 -104 -25 -156 l29 -33 369 -3 c202 -2 387 0
410 3 54 8 93 46 93 92 0 49 -24 89 -61 102 -21 7 -158 11 -408 11 -318 0
-381 -3 -407 -16z"/>
<path d="M389 1781 c-23 -23 -29 -38 -29 -71 0 -33 6 -48 29 -71 l29 -29 227
0 227 0 29 29 c32 32 38 71 17 116 -23 50 -48 55 -283 55 l-217 0 -29 -29z"/>
<path d="M408 1225 c-54 -30 -66 -103 -24 -152 l24 -28 211 -5 c116 -3 224 -2
240 2 70 19 92 112 38 165 l-27 28 -218 2 c-178 2 -222 0 -244 -12z"/>
<path d="M1994 1696 c-61 -28 -113 -87 -138 -156 -25 -70 -19 -207 12 -266 50
-97 133 -147 243 -147 86 0 151 30 196 91 39 51 44 101 13 132 -34 34 -69 20
-100 -40 -27 -52 -55 -70 -111 -70 -88 0 -139 68 -139 185 0 112 56 185 142
185 53 0 85 -15 102 -49 22 -42 44 -61 70 -61 26 0 56 29 56 54 0 28 -37 92
-70 119 -62 53 -189 63 -276 23z"/>
<path d="M1357 1692 c-21 -23 -22 -56 -1 -76 11 -11 34 -16 78 -16 l63 0 7
-46 c3 -26 6 -123 6 -215 0 -156 2 -171 20 -189 27 -27 62 -25 88 3 21 22 22
31 22 240 l0 216 71 3 c59 2 74 7 85 23 11 16 11 25 1 45 l-13 25 -205 3
c-189 2 -207 1 -222 -16z"/>
</g>
</svg>
